<?xml version="1.0" standalone="no"?>
<!DOCTYPE svg PUBLIC "-//W3C//DTD SVG 20010904//EN"
 "http://www.w3.org/TR/2001/REC-SVG-20010904/DTD/svg10.dtd">
<svg version="1.0" xmlns="http://www.w3.org/2000/svg"
 width="2048.000000pt" height="2048.000000pt" viewBox="0 0 2048.000000 2048.000000"
 preserveAspectRatio="xMidYMid meet">
<metadata>
Created by potrace 1.16, written by Peter Selinger 2001-2019
</metadata>
<g transform="translate(0.000000,2048.000000) scale(0.100000,-0.100000)"
fill="#000000" stroke="none">
<path d="M14414 14761 c-2 -2 -4 -17 -4 -33 l0 -28 108 0 108 0 -4 -35 -4 -35
61 0 61 0 0 35 c0 33 2 35 33 35 27 0 36 6 46 26 6 15 10 28 9 30 -5 5 -409
10 -414 5z"/>
<path d="M14250 14703 c-8 -3 -20 -13 -26 -22 -7 -8 -29 -20 -50 -26 -26 -7
-43 -19 -52 -37 -7 -15 -21 -30 -32 -33 -11 -4 -27 -20 -35 -36 -9 -16 -21
-29 -29 -29 -7 0 -19 -12 -26 -26 -8 -14 -27 -33 -42 -42 -15 -9 -28 -22 -28
-29 0 -8 -11 -18 -24 -23 -13 -5 -33 -22 -46 -39 -12 -17 -27 -31 -35 -31 -17
0 -100 -79 -108 -102 -4 -10 -12 -18 -18 -18 -6 0 -63 -52 -126 -115 -63 -64
-140 -134 -170 -157 -91 -67 -332 -318 -343 -357 -5 -18 -16 -41 -25 -51 -38
-42 -38 -746 1 -821 7 -14 18 -66 24 -115 6 -49 20 -111 31 -137 11 -27 24
-72 29 -101 8 -50 23 -89 54 -146 22 -39 83 -181 97 -225 6 -22 23 -57 36 -77
12 -21 23 -41 23 -45 0 -5 11 -21 25 -37 14 -16 25 -34 25 -41 0 -6 12 -22 26
-36 14 -13 37 -44 50 -69 29 -55 78 -110 100 -110 8 0 27 14 41 30 13 17 31
30 39 30 8 0 14 6 14 13 0 16 41 57 57 57 6 0 13 9 16 20 3 11 19 28 36 37 17
10 31 22 31 27 0 5 16 26 35 45 97 99 225 235 226 240 0 3 27 29 59 56 32 28
92 91 134 141 42 49 86 100 98 111 13 11 55 54 94 94 40 41 98 100 130 131 69
67 130 138 147 171 17 32 150 163 174 171 21 7 163 150 163 165 0 5 14 23 30
39 17 17 30 39 30 50 0 10 11 24 24 30 23 10 34 52 15 52 -4 0 -10 13 -14 29
-9 42 -20 48 -107 56 l-78 7 0 -66 0 -66 30 0 c28 0 30 -3 30 -35 0 -32 -2
-35 -29 -35 -26 0 -30 -4 -34 -32 l-4 -33 -1 33 -2 32 -65 0 -65 0 0 -30 c0
-28 -3 -30 -35 -30 l-35 0 0 130 0 130 -59 0 -60 0 -4 -32 -4 -33 -1 33 c-2
29 -5 32 -32 32 l-30 0 0 100 0 100 65 0 65 0 0 65 0 65 -65 0 -65 0 0 35 c0
33 -2 35 -35 35 l-35 0 0 130 0 130 -65 0 -65 0 0 35 c0 33 -2 35 -35 35 l-35
0 0 65 0 65 35 0 35 0 0 65 0 65 35 0 35 0 0 -65 0 -65 65 0 65 0 0 65 0 65
-64 0 -64 0 -4 69 -3 70 63 3 c34 2 62 0 62 -4 0 -5 45 -8 100 -8 l100 0 0 66
0 67 -130 -5 -130 -6 0 38 0 37 -57 6 c-32 3 -80 8 -108 11 -27 3 -57 3 -65
-1z"/>
<path d="M14887 14693 c-4 -3 -7 -19 -7 -35 0 -28 0 -28 65 -28 l65 0 0 -70 0
-70 63 0 c35 0 68 5 75 10 9 7 9 7 2 -2 -5 -7 -10 -25 -10 -40 0 -25 3 -28 35
-28 33 0 35 -2 35 -35 0 -33 2 -35 35 -35 l35 0 0 -65 0 -65 30 0 30 0 0 -65
0 -65 35 0 35 0 0 -200 0 -200 -35 0 -35 0 0 -65 0 -65 -30 0 -30 0 0 -65 0
-65 -35 0 c-33 0 -35 -2 -35 -35 0 -33 -2 -35 -35 -35 -32 0 -35 -2 -35 -29 0
-40 33 -64 66 -49 13 6 24 17 24 25 0 7 8 13 18 13 22 0 49 27 54 55 2 11 13
25 26 30 13 6 25 21 28 35 10 45 23 70 39 70 21 0 33 37 36 105 2 49 6 58 25
65 29 11 38 41 34 115 -2 33 -4 119 -4 190 l-1 130 -33 10 c-32 9 -34 12 -28
45 10 61 -3 109 -34 125 -20 10 -29 24 -33 53 -5 25 -19 51 -42 75 -19 20 -35
43 -35 52 0 9 -9 15 -23 15 -13 0 -34 9 -47 20 -13 11 -27 20 -32 20 -5 0 -7
4 -4 9 3 5 -8 14 -24 21 -21 9 -30 19 -30 35 0 22 -27 40 -75 47 -12 2 -21 12
-23 26 -3 20 -9 22 -66 22 -34 0 -66 -3 -69 -7z"/>
<path d="M9100 14201 c0 -22 -4 -42 -9 -45 -5 -4 -50 -9 -100 -13 -71 -5 -92
-9 -96 -22 -7 -23 -57 -40 -100 -34 -34 4 -35 3 -35 -26 l0 -31 -65 0 -65 0 0
-34 0 -33 -79 -6 c-83 -5 -121 -19 -121 -42 0 -10 -11 -15 -35 -15 -33 0 -35
-2 -35 -35 0 -33 -2 -35 -35 -35 -32 0 -35 2 -35 30 0 25 -4 30 -25 30 -35 0
-74 -20 -80 -41 -4 -10 -19 -26 -34 -35 -15 -9 -31 -26 -37 -38 -8 -20 -16
-21 -111 -20 l-103 1 0 -27 c0 -27 -3 -28 -57 -33 -163 -15 -203 -34 -203 -97
0 -67 62 -81 360 -81 244 -1 355 10 435 43 28 11 97 29 154 39 57 10 113 24
125 32 11 7 64 33 116 56 154 69 283 133 316 158 17 13 35 23 39 23 21 0 185
135 185 152 0 9 -14 25 -74 86 -10 11 -34 32 -53 48 -19 16 -47 41 -63 57 -16
15 -39 27 -54 27 -24 0 -26 -4 -26 -39z"/>
<path d="M7370 13601 c0 -18 5 -31 13 -31 6 0 36 -3 65 -6 29 -4 82 -3 117 1
64 6 65 7 62 33 l-4 27 -126 3 -127 3 0 -30z"/>
<path d="M6914 9859 c-21 -6 -34 -17 -38 -32 -3 -13 -16 -29 -30 -36 -13 -7
-30 -24 -37 -37 -6 -13 -21 -26 -31 -30 -11 -3 -23 -17 -28 -30 -5 -13 -21
-29 -35 -34 -14 -5 -28 -18 -32 -27 -3 -10 -35 -46 -70 -79 -34 -34 -63 -65
-63 -70 0 -4 -24 -30 -52 -56 -60 -55 -55 -50 -102 -103 -91 -101 -185 -200
-363 -381 -106 -107 -193 -200 -193 -205 0 -15 -216 -230 -269 -268 -24 -17
-49 -41 -55 -54 -7 -12 -24 -28 -39 -35 -15 -7 -27 -18 -27 -25 -1 -32 -142
-197 -169 -197 -16 0 -101 -88 -111 -116 -6 -14 -19 -28 -30 -31 -20 -5 -23
-13 -35 -85 -3 -21 -10 -38 -15 -38 -5 0 -16 -7 -25 -16 -13 -13 -16 -35 -14
-108 3 -98 11 -116 53 -116 l26 0 0 100 0 100 35 0 35 0 0 65 0 65 30 0 c27 0
30 3 30 30 l0 30 135 0 135 0 0 -30 0 -30 68 -2 c37 0 53 -3 35 -5 -27 -4 -32
-9 -36 -36 l-4 -32 -1 33 -2 32 -60 0 -60 0 0 -165 0 -165 -135 0 -135 0 0
-30 c0 -27 -3 -30 -30 -30 l-29 0 -4 -102 -3 -103 -2 103 -2 102 -30 0 c-31 0
-37 7 -43 50 -3 20 -10 25 -33 25 l-29 0 3 -120 c1 -71 6 -121 12 -123 25 -9
39 -62 38 -137 -2 -66 1 -79 18 -91 37 -26 43 -34 50 -71 4 -21 17 -48 29 -61
13 -12 28 -36 35 -52 7 -17 22 -33 34 -36 12 -3 27 -18 34 -33 8 -19 23 -31
42 -34 16 -4 31 -15 35 -26 3 -11 19 -24 34 -29 16 -6 44 -26 63 -45 33 -33
38 -34 78 -27 41 7 42 7 56 -25 l13 -32 128 -3 c70 -1 160 -2 198 -2 39 0 120
1 182 2 103 0 112 2 118 21 7 22 42 39 81 39 14 0 35 11 47 24 13 14 35 28 51
32 15 3 34 17 42 29 8 13 28 28 44 35 17 7 30 16 30 21 0 12 229 239 241 239
5 0 14 11 21 24 6 14 23 30 38 36 16 7 31 22 34 36 4 13 10 24 15 24 13 0 121
105 121 118 0 6 9 13 19 17 11 3 31 21 46 40 14 19 32 35 40 35 7 0 17 9 20
21 4 11 22 27 41 36 18 9 36 25 40 35 3 10 12 18 20 18 18 0 37 18 47 43 4 11
16 21 27 24 12 3 27 18 35 34 8 15 24 30 35 34 11 3 20 11 20 16 0 6 12 22 28
37 27 27 48 59 77 121 24 51 37 245 32 488 -7 299 -19 435 -42 470 -10 15 -24
67 -32 117 -7 49 -18 95 -24 102 -6 8 -20 45 -30 84 -10 39 -29 85 -43 103
-13 17 -28 50 -32 72 -4 22 -14 51 -23 65 -10 14 -26 45 -36 70 -17 39 -46 92
-92 165 -7 11 -21 36 -32 55 -26 47 -87 141 -106 163 -16 19 -33 20 -81 6z"/>
<path d="M12350 7939 c-169 -8 -232 -15 -280 -33 -56 -21 -105 -36 -119 -36
-6 0 -31 -9 -54 -21 -23 -11 -72 -27 -109 -35 -37 -8 -106 -35 -154 -60 -49
-25 -113 -56 -144 -68 -30 -13 -71 -34 -91 -47 -77 -51 -193 -125 -228 -146
-58 -35 -66 -44 -49 -57 8 -6 22 -26 32 -43 9 -18 21 -33 26 -33 6 0 35 -25
64 -56 30 -31 60 -61 66 -67 7 -7 26 -26 44 -43 17 -18 40 -34 51 -36 11 -2
26 -16 33 -31 15 -32 42 -35 67 -7 10 11 25 22 35 25 9 3 22 17 28 30 11 23
16 25 87 25 62 0 79 4 95 20 11 11 20 25 20 30 0 6 11 15 24 20 13 5 30 22 38
37 13 28 13 28 125 31 111 3 112 3 133 32 11 15 34 31 50 35 16 3 32 15 35 25
5 16 18 20 88 22 l82 3 11 35 c11 32 15 35 55 38 45 3 79 24 79 48 0 19 28 24
145 27 98 2 100 2 113 30 13 26 16 27 91 27 79 0 100 9 113 49 2 7 19 19 38
25 33 10 35 14 41 66 5 44 6 47 7 18 2 -35 4 -38 31 -38 21 0 32 -6 36 -20 8
-24 60 -35 98 -21 29 11 37 41 11 41 -20 0 -43 28 -44 53 0 9 -5 17 -11 17
-15 0 -38 31 -39 51 0 27 -24 31 -210 40 -198 9 -350 8 -560 -2z"/>
</g>
</svg>
